{"title":"A Murder of Crows (1999) DVDRip.XviD","uid":6737333,"size":735471616,"categoryP":"video","categoryS":"movies","magnet":"?xt=urn:btih:a095097e25b1661b3b22cbb2f509c777a48676a5&amp;dn=A+Murder+of+Crows+%281999%29+DVDRip.XviD&amp;tr=udp%3A%2F%2Ftracker.openbittorrent.com%3A80&amp;tr=udp%3A%2F%2Fopen.demonii.com%3A1337&amp;tr=udp%3A%2F%2Ftracker.coppersurfer.tk%3A6969&amp;tr=udp%3A%2F%2Fexodus.desync.com%3A6969","seeders":2,"leechers":0,"uploader":"bigbluesea","files":-1,"time":1318380527,"description":"A disbarred lawyer takes credit for a late friend's book, which becomes a smash hit but the tables turn on him sooner than he suspected.\n\nDirector:Rowdy Herrington\n\n  Action | Thriller | Crime   -  6 July 1999 (USA)\n\n\nStars:\nCuba Gooding Jr.\n\nTom Berenger\n\nMarianne Jean-Baptiste\n\n**************************************************************************\n\n\n\n\nVideo\nID                               : 0\nFormat                           : MPEG-4 Visual\nFormat profile                   : Advanced Simple@L5\nFormat settings, BVOP            : 1\nFormat settings, QPel            : No\nFormat settings, GMC             : No warppoints\nFormat settings, Matrix          : Custom\nCodec ID                         : XVID\nCodec ID/Hint                    : XviD\nDuration                         : 1h 41mn\nBit rate                         : 838 Kbps\nWidth                            : 528 pixels\nHeight                           : 400 pixels\nDisplay aspect ratio             : 4:3\nFrame rate                       : 23.976 fps\nColor space                      : YUV\nChroma subsampling               : 4:2:0\nBit depth                        : 8 bits\nScan type                        : Progressive\nCompression mode                 : Lossy\nBits/(Pixel*Frame)               : 0.165\nStream size                      : 608 MiB (87%)\nWriting library                  : XviD 1.2.1 (UTC 2008-12-04)\n\nAudio\nID                               : 1\nFormat                           : MPEG Audio\nFormat version                   : Version 1\nFormat profile                   : Layer 3\nMode                             : Joint stereo\nMode extension                   : MS Stereo\nCodec ID                         : 55\nCodec ID/Hint                    : MP3\nDuration                         : 1h 41mn\nBit rate mode                    : Variable\nBit rate                         : 116 Kbps\nNominal bit rate                 : 128 Kbps\nChannel(s)                       : 2 channels\nSampling rate                    : 48.0 KHz\nCompression mode                 : Lossy\nStream size                      : 84.2 MiB (12%)\nAlignment                        : Aligned on interleaves\nInterleave, duration             : 24 ms (0.58 video frame)\nInterleave, preload duration     : 158 ms\nWriting library                  : LAME3.98r\nEncoding settings                : -m j -V 4 -q 2 -lowpass 17 --abr 128\nLanguage                         : English\n\n","torrent":{"xt":"urn:btih:a095097e25b1661b3b22cbb2f509c777a48676a5","amp;dn":"A+Murder+of+Crows+%281999%29+DVDRip.XviD","amp;tr":["udp%3A%2F%2Ftracker.openbittorrent.com%3A80","udp%3A%2F%2Fopen.demonii.com%3A1337","udp%3A%2F%2Ftracker.coppersurfer.tk%3A6969","udp%3A%2F%2Fexodus.desync.com%3A6969"],"infoHash":"a095097e25b1661b3b22cbb2f509c777a48676a5","infoHashBuffer":{"type":"Buffer","data":[160,149,9,126,37,177,102,27,59,34,203,178,245,9,199,119,164,134,118,165]},"announce":[],"urlList":[]}}